<svg id="visual" viewBox="0 0 900 200" width="900" height="200" xmlns="http://www.w3.org/2000/svg" xmlns:xlink="http://www.w3.org/1999/xlink" version="1.1"><rect x="0" y="0" width="900" height="200" fill="#f8f9fa"></rect><path d="M0 75L21.5 81.5C43 88 86 101 128.8 111.7C171.7 122.3 214.3 130.7 257.2 130.3C300 130 343 121 385.8 106.5C428.7 92 471.3 72 514.2 70.7C557 69.3 600 86.7 642.8 102.2C685.7 117.7 728.3 131.3 771.2 125.2C814 119 857 93 878.5 80L900 67L900 201L878.5 201C857 201 814 201 771.2 201C728.3 201 685.7 201 642.8 201C600 201 557 201 514.2 201C471.3 201 428.7 201 385.8 201C343 201 300 201 257.2 201C214.3 201 171.7 201 128.8 201C86 201 43 201 21.5 201L0 201Z" fill="#a517ba" stroke-linecap="round" stroke-linejoin="miter"></path></svg>